{
	"asset":{
		"generator":"Khronos glTF Blender I/O v3.5.30",
		"version":"2.0"
	},
	"scene":0,
	"scenes":[
		{
			"name":"Scene",
			"nodes":[
				0,
				1,
				2,
				3,
				4,
				5,
				6
			]
		}
	],
	"nodes":[
		{
			"name":"Empty",
			"rotation":[
				0.70710688829422,
				0,
				0,
				0.7071066498756409
			],
			"translation":[
				0.8100000023841858,
				1.7236913442611694,
				0.1055779829621315
			]
		},
		{
			"name":"Empty.001",
			"rotation":[
				-0.5,
				-0.5000000596046448,
				-0.49999991059303284,
				0.5000000596046448
			],
			"scale":[
				-1,
				-1,
				-1
			],
			"translation":[
				0,
				1.7236913442611694,
				-0.2740042507648468
			]
		},
		{
			"mesh":0,
			"name":"Cube",
			"translation":[
				0,
				0.0026155710220336914,
				0.028135567903518677
			]
		},
		{
			"mesh":1,
			"name":"Cube.001",
			"translation":[
				0,
				0.0026155710220336914,
				0.028135567903518677
			]
		},
		{
			"mesh":2,
			"name":"Cube.002",
			"translation":[
				0,
				0.0026155710220336914,
				0.028135567903518677
			]
		},
		{
			"name":"Empty.002",
			"rotation":[
				0.70710688829422,
				0,
				0,
				0.7071066498756409
			],
			"scale":[
				0.38919514417648315,
				0.38919514417648315,
				0.38919514417648315
			],
			"translation":[
				0.002111627720296383,
				-0.17684519290924072,
				0.1055779829621315
			]
		},
		{
			"mesh":3,
			"name":"Cube.003",
			"translation":[
				0,
				0.0026155710220336914,
				0.028135567903518677
			]
		}
	],
	"materials":[
		{
			"doubleSided":true,
			"name":"Material.003",
			"pbrMetallicRoughness":{
				"baseColorFactor":[
					0.800000011920929,
					0.800000011920929,
					0.800000011920929,
					1
				],
				"metallicFactor":0,
				"roughnessFactor":0.20000000298023224
			}
		},
		{
			"doubleSided":true,
			"name":"Material.001",
			"pbrMetallicRoughness":{
				"baseColorTexture":{
					"index":0,
					"texCoord":1
				},
				"metallicFactor":0,
				"roughnessFactor":0.5
			}
		},
		{
			"doubleSided":true,
			"name":"Material.001",
			"pbrMetallicRoughness":{
				"baseColorTexture":{
					"index":0
				},
				"metallicFactor":0,
				"roughnessFactor":0.5
			}
		}
	],
	"meshes":[
		{
			"name":"Cube.006",
			"primitives":[
				{
					"attributes":{
						"POSITION":0,
						"TEXCOORD_0":1,
						"NORMAL":2
					},
					"indices":3,
					"material":0
				}
			]
		},
		{
			"name":"Cube.008",
			"primitives":[
				{
					"attributes":{
						"POSITION":4,
						"TEXCOORD_0":5,
						"TEXCOORD_1":6,
						"NORMAL":7
					},
					"indices":8,
					"material":1
				}
			]
		},
		{
			"name":"Cube.009",
			"primitives":[
				{
					"attributes":{
						"POSITION":9,
						"TEXCOORD_0":10,
						"NORMAL":11
					},
					"indices":12,
					"material":0
				}
			]
		},
		{
			"name":"Cube.010",
			"primitives":[
				{
					"attributes":{
						"POSITION":13,
						"TEXCOORD_0":14,
						"NORMAL":15
					},
					"indices":16,
					"material":2
				}
			]
		}
	],
	"textures":[
		{
			"sampler":0,
			"source":0
		}
	],
	"images":[
		{
			"bufferView":9,
			"mimeType":"image/png",
			"name":"andris2_lux_15_30_l-1"
		}
	],
	"accessors":[
		{
			"bufferView":0,
			"componentType":5126,
			"count":600,
			"max":[
				0.18359686434268951,
				0.1889376938343048,
				0.09748568385839462
			],
			"min":[
				-0.18359965085983276,
				-0.19149436056613922,
				-0.1893327385187149
			],
			"type":"VEC3"
		},
		{
			"bufferView":1,
			"componentType":5126,
			"count":600,
			"type":"VEC2"
		},
		{
			"bufferView":2,
			"componentType":5126,
			"count":600,
			"type":"VEC3"
		},
		{
			"bufferView":3,
			"componentType":5123,
			"count":2886,
			"type":"SCALAR"
		},
		{
			"bufferView":4,
			"componentType":5126,
			"count":93,
			"max":[
				0.153407484292984,
				0.1521872878074646,
				0.13330520689487457
			],
			"min":[
				-0.1545909196138382,
				-0.05678318440914154,
				0.11721667647361755
			],
			"type":"VEC3"
		},
		{
			"bufferView":5,
			"componentType":5126,
			"count":93,
			"type":"VEC2"
		},
		{
			"bufferView":6,
			"componentType":5126,
			"count":93,
			"type":"VEC2"
		},
		{
			"bufferView":7,
			"componentType":5126,
			"count":93,
			"type":"VEC3"
		},
		{
			"bufferView":8,
			"componentType":5123,
			"count":372,
			"type":"SCALAR"
		},
		{
			"bufferView":10,
			"componentType":5126,
			"count":570,
			"max":[
				0.18017785251140594,
				0.17964090406894684,
				0.1264895647764206
			],
			"min":[
				-0.1801805943250656,
				-0.18219777941703796,
				0.08812416344881058
			],
			"type":"VEC3"
		},
		{
			"bufferView":11,
			"componentType":5126,
			"count":570,
			"type":"VEC2"
		},
		{
			"bufferView":12,
			"componentType":5126,
			"count":570,
			"type":"VEC3"
		},
		{
			"bufferView":13,
			"componentType":5123,
			"count":2652,
			"type":"SCALAR"
		},
		{
			"bufferView":14,
			"componentType":5126,
			"count":71,
			"max":[
				0.153407484292984,
				-0.050309158861637115,
				0.13161848485469818
			],
			"min":[
				-0.1545909196138382,
				-0.15472130477428436,
				0.11721667647361755
			],
			"type":"VEC3"
		},
		{
			"bufferView":15,
			"componentType":5126,
			"count":71,
			"type":"VEC2"
		},
		{
			"bufferView":16,
			"componentType":5126,
			"count":71,
			"type":"VEC3"
		},
		{
			"bufferView":17,
			"componentType":5123,
			"count":264,
			"type":"SCALAR"
		}
	],
	"bufferViews":[
		{
			"buffer":0,
			"byteLength":7200,
			"byteOffset":0,
			"target":34962
		},
		{
			"buffer":0,
			"byteLength":4800,
			"byteOffset":7200,
			"target":34962
		},
		{
			"buffer":0,
			"byteLength":7200,
			"byteOffset":12000,
			"target":34962
		},
		{
			"buffer":0,
			"byteLength":5772,
			"byteOffset":19200,
			"target":34963
		},
		{
			"buffer":0,
			"byteLength":1116,
			"byteOffset":24972,
			"target":34962
		},
		{
			"buffer":0,
			"byteLength":744,
			"byteOffset":26088,
			"target":34962
		},
		{
			"buffer":0,
			"byteLength":744,
			"byteOffset":26832,
			"target":34962
		},
		{
			"buffer":0,
			"byteLength":1116,
			"byteOffset":27576,
			"target":34962
		},
		{
			"buffer":0,
			"byteLength":744,
			"byteOffset":28692,
			"target":34963
		},
		{
			"buffer":0,
			"byteLength":134712,
			"byteOffset":29436
		},
		{
			"buffer":0,
			"byteLength":6840,
			"byteOffset":164148,
			"target":34962
		},
		{
			"buffer":0,
			"byteLength":4560,
			"byteOffset":170988,
			"target":34962
		},
		{
			"buffer":0,
			"byteLength":6840,
			"byteOffset":175548,
			"target":34962
		},
		{
			"buffer":0,
			"byteLength":5304,
			"byteOffset":182388,
			"target":34963
		},
		{
			"buffer":0,
			"byteLength":852,
			"byteOffset":187692,
			"target":34962
		},
		{
			"buffer":0,
			"byteLength":568,
			"byteOffset":188544,
			"target":34962
		},
		{
			"buffer":0,
			"byteLength":852,
			"byteOffset":189112,
			"target":34962
		},
		{
			"buffer":0,
			"byteLength":528,
			"byteOffset":189964,
			"target":34963
		}
	],
	"samplers":[
		{
			"magFilter":9729,
			"minFilter":9987
		}
	],
	"buffers":[
		{
			"byteLength":190492,
			"uri":"data:application/octet-stream;base64,"
		}
	]
}
